<?xml version="1.0" encoding="UTF-8"?>
<svg version="1.1" xmlns="http://www.w3.org/2000/svg" width="64" height="64">
<path d="M0 0 C1.91329102 -0.01836914 1.91329102 -0.01836914 3.86523438 -0.03710938 C5.09435547 -0.03904297 6.32347656 -0.04097656 7.58984375 -0.04296875 C8.71124756 -0.04707764 9.83265137 -0.05118652 10.98803711 -0.05541992 C14.1451238 0.19402828 16.28423656 0.67752748 19.0625 2.1875 C20.91645348 5.70361868 22.0625 8.19676247 22.0625 12.1875 C24.7025 12.1875 27.3425 12.1875 30.0625 12.1875 C30.25 14.5625 30.25 14.5625 30.0625 17.1875 C29.0725 17.8475 28.0825 18.5075 27.0625 19.1875 C26.64485618 22.00024752 26.64485618 22.00024752 26.76953125 25.2890625 C26.77919922 26.50078125 26.78886719 27.7125 26.79882812 28.9609375 C26.82396484 30.23195313 26.84910156 31.50296875 26.875 32.8125 C26.88853516 34.09125 26.90207031 35.37 26.91601562 36.6875 C26.95146804 39.85458282 27.00088559 43.02083541 27.0625 46.1875 C20.91015625 46.28515625 20.91015625 46.28515625 19.0625 46.1875 C18.7325 45.8575 18.4025 45.5275 18.0625 45.1875 C18.0625 43.5375 18.0625 41.8875 18.0625 40.1875 C6.1825 40.1875 -5.6975 40.1875 -17.9375 40.1875 C-17.9375 41.8375 -17.9375 43.4875 -17.9375 45.1875 C-18.9375 46.1875 -18.9375 46.1875 -20.78515625 46.28515625 C-22.8359375 46.25260417 -24.88671875 46.22005208 -26.9375 46.1875 C-26.92178955 45.38006348 -26.9060791 44.57262695 -26.88989258 43.74072266 C-26.82770321 40.09805244 -26.78855991 36.45549366 -26.75 32.8125 C-26.72486328 31.54148437 -26.69972656 30.27046875 -26.67382812 28.9609375 C-26.66416016 27.74921875 -26.65449219 26.5375 -26.64453125 25.2890625 C-26.6288208 24.16838379 -26.61311035 23.04770508 -26.59692383 21.89306641 C-26.70931396 21.00022949 -26.8217041 20.10739258 -26.9375 19.1875 C-27.9275 18.5275 -28.9175 17.8675 -29.9375 17.1875 C-30.125 14.5625 -30.125 14.5625 -29.9375 12.1875 C-27.2975 12.1875 -24.6575 12.1875 -21.9375 12.1875 C-21.7828125 11.135625 -21.7828125 11.135625 -21.625 10.0625 C-20.82563204 6.71968852 -19.7361567 4.11864425 -17.9375 1.1875 C-12.47246363 -0.92716698 -5.75217181 0.00289782 0 0 Z M-14.6640625 6.44140625 C-16.17953717 8.51937305 -16.87715228 10.41778608 -17.625 12.875 C-17.87636719 13.68324219 -18.12773437 14.49148437 -18.38671875 15.32421875 C-18.56847656 15.93910156 -18.75023437 16.55398437 -18.9375 17.1875 C-9.91040322 21.70104839 7.30430053 19.61886854 17.0625 18.1875 C17.7225 17.5275 18.3825 16.8675 19.0625 16.1875 C18.44598417 14.5384698 17.81902258 12.89334159 17.1875 11.25 C16.83945312 10.33347656 16.49140625 9.41695312 16.1328125 8.47265625 C15.2805914 6.03808944 15.2805914 6.03808944 13.0625 5.1875 C-1.29173665 2.9297141 -1.29173665 2.9297141 -14.6640625 6.44140625 Z M-21.9375 24.1875 C-21.6075 25.1775 -21.2775 26.1675 -20.9375 27.1875 C-18.6275 27.5175 -16.3175 27.8475 -13.9375 28.1875 C-13.6075 26.8675 -13.2775 25.5475 -12.9375 24.1875 C-15.9075 24.1875 -18.8775 24.1875 -21.9375 24.1875 Z M13.0625 24.1875 C13.3925 25.5075 13.7225 26.8275 14.0625 28.1875 C17.5275 27.6925 17.5275 27.6925 21.0625 27.1875 C21.3925 26.1975 21.7225 25.2075 22.0625 24.1875 C19.0925 24.1875 16.1225 24.1875 13.0625 24.1875 Z M-8.9375 31.1875 C-8.36624646 34.93025212 -8.36624646 34.93025212 -6.9375 36.1875 C-4.62756618 36.31307162 -2.31331464 36.36325729 0 36.375 C1.90072266 36.39626953 1.90072266 36.39626953 3.83984375 36.41796875 C7.15193999 36.53463697 7.15193999 36.53463697 9.0625 34.1875 C9.0625 33.1975 9.0625 32.2075 9.0625 31.1875 C3.1225 31.1875 -2.8175 31.1875 -8.9375 31.1875 Z " fill="white" transform="translate(31.9375,8.8125)"/>
</svg>
