<?xml version="1.0" standalone="no"?>
<!DOCTYPE svg PUBLIC "-//W3C//DTD SVG 20010904//EN"
 "http://www.w3.org/TR/2001/REC-SVG-20010904/DTD/svg10.dtd">
<svg version="1.0" xmlns="http://www.w3.org/2000/svg"
 width="225.000000pt" height="225.000000pt" viewBox="0 0 225.000000 225.000000"
 preserveAspectRatio="xMidYMid meet">

<g transform="translate(0.000000,225.000000) scale(0.100000,-0.100000)"
fill="white" stroke="none">
<path d="M455 2145 c-76 -21 -116 -40 -174 -83 -314 -236 -221 -723 158 -836
44 -13 103 -16 299 -16 l244 0 29 29 29 29 0 245 c0 280 -8 325 -79 434 -105
163 -323 248 -506 198z m215 -111 c68 -20 115 -50 168 -108 81 -88 86 -109 90
-374 l3 -233 -233 3 c-222 3 -235 4 -281 27 -76 37 -142 104 -179 179 -30 60
-33 75 -33 157 0 76 4 98 26 146 80 171 263 255 439 203z"/>
<path d="M1573 2146 c-168 -41 -305 -174 -349 -341 -10 -35 -14 -122 -14 -293
l0 -244 29 -29 29 -29 245 0 c216 0 252 2 309 20 240 74 385 326 323 563 -67
256 -322 413 -572 353z m270 -130 c70 -34 139 -103 175 -175 24 -50 27 -67 27
-156 0 -95 -2 -103 -34 -163 -43 -78 -114 -144 -189 -174 -53 -21 -72 -22
-277 -23 l-220 0 0 215 c0 179 3 223 18 265 36 103 132 197 236 230 74 24 195
15 264 -19z"/>
<path d="M424 1020 c-257 -82 -396 -364 -303 -616 85 -230 318 -355 557 -299
163 39 292 160 342 323 18 57 20 93 20 309 l0 245 -29 29 -29 29 -249 -1
c-216 0 -256 -3 -309 -19z m506 -280 c0 -197 -9 -268 -42 -333 -30 -61 -97
-126 -163 -160 -55 -29 -68 -32 -155 -32 -82 0 -103 4 -152 27 -73 34 -142
103 -176 176 -23 49 -27 70 -27 152 0 85 3 101 28 150 50 97 137 170 236 196
29 8 122 13 249 13 l202 1 0 -190z"/>
<path d="M1240 1011 l-30 -29 0 -244 c0 -263 5 -300 57 -402 55 -109 190 -208
321 -235 302 -63 595 194 569 499 -16 185 -132 343 -304 411 -55 22 -73 24
-321 27 l-262 3 -30 -30z m534 -96 c273 -71 362 -417 156 -609 -164 -154 -419
-127 -543 57 -58 85 -67 133 -67 364 l0 203 198 0 c144 0 213 -4 256 -15z"/>
</g>
</svg>
