<?xml version="1.0" standalone="no"?>
<!DOCTYPE svg PUBLIC "-//W3C//DTD SVG 20010904//EN"
 "http://www.w3.org/TR/2001/REC-SVG-20010904/DTD/svg10.dtd">
<svg version="1.0" xmlns="http://www.w3.org/2000/svg"
 width="512.000000pt" height="434.000000pt" viewBox="0 0 512.000000 434.000000"
 preserveAspectRatio="xMidYMid meet" fill='white'>

<g transform="translate(0.000000,434.000000) scale(0.100000,-0.100000)"
fill="#white" stroke="none">
<path d="M3188 3963 l-3 -348 -175 -5 -175 -5 -5 -237 c-3 -130 -7 -238 -10
-241 -3 -2 -54 -32 -115 -67 -60 -35 -117 -69 -126 -77 -15 -12 -16 -119 -11
-1202 3 -654 2 -1201 -2 -1215 -6 -25 -10 -27 -49 -24 l-42 3 -3 978 -2 977
-184 0 c-158 0 -185 2 -190 16 -3 9 -6 51 -6 95 l0 79 -242 -2 -243 -3 -5 -90
-5 -90 -72 -3 -73 -3 0 -1010 0 -1009 -26 -10 c-14 -6 -34 -10 -45 -10 -18 0
-19 16 -21 648 l-3 647 -415 0 -415 0 -5 -739 -5 -740 -90 -36 c-150 -61 -295
-144 -295 -171 0 -5 975 -9 2450 -9 1475 0 2450 4 2450 9 0 27 -145 110 -295
171 l-90 36 -5 805 -5 804 -97 3 -97 3 -3 72 -3 72 -212 3 -212 2 -3 -72 -3
-73 -150 -5 -150 -5 -3 -699 c-2 -542 -5 -702 -14 -708 -15 -8 -57 0 -76 15
-11 9 -13 274 -10 1543 1 843 0 1536 -4 1540 -4 4 -53 -21 -108 -55 -55 -33
-107 -61 -115 -61 -11 0 -15 18 -17 73 l-3 72 -70 5 -70 5 -3 348 c-1 217 -6
347 -12 347 -6 0 -11 -130 -12 -347z m-284 -1119 c11 -28 6 -120 -6 -132 -7
-7 -44 -12 -94 -12 -65 0 -83 3 -88 16 -8 21 -8 129 1 137 3 4 46 7 94 7 70 0
88 -3 93 -16z m274 -61 l-3 -78 -90 0 -90 0 -3 64 c-2 35 -1 70 2 77 4 10 29
14 96 14 l91 0 -3 -77z m280 3 c2 -49 -1 -72 -10 -77 -21 -13 -162 -11 -176 3
-13 13 -17 130 -5 142 4 4 48 5 98 4 l90 -3 3 -69z m-554 -242 c11 -28 6 -120
-6 -132 -7 -7 -42 -12 -88 -12 -46 0 -81 5 -88 12 -13 13 -17 130 -5 141 3 4
46 7 94 7 70 0 88 -3 93 -16z m276 -58 c0 -86 0 -86 -95 -86 -95 0 -95 0 -95
86 l0 74 95 0 95 0 0 -74z m280 0 c0 -58 -3 -75 -16 -80 -29 -11 -160 -6 -172
6 -13 13 -17 130 -5 141 3 4 48 7 100 7 l93 0 0 -74z m-556 -242 c9 -23 7
-107 -2 -122 -6 -9 -33 -12 -98 -10 l-89 3 -3 59 c-5 87 -6 86 97 86 72 0 90
-3 95 -16z m276 -59 l0 -76 -92 3 -93 3 -3 73 -3 72 96 0 95 0 0 -75z m278 3
l-3 -73 -95 0 -95 0 -3 59 c-2 32 -1 65 2 72 4 11 30 14 101 14 l96 0 -3 -72z
m-1690 -73 c5 -115 5 -115 -88 -115 l-80 0 0 88 c0 49 3 92 7 96 4 4 41 5 83
4 l75 -3 3 -70z m270 -22 l3 -93 -81 0 -80 0 0 88 c0 49 3 92 7 96 4 4 39 5
78 4 l70 -3 3 -92z m280 0 l3 -93 -81 0 c-44 0 -80 3 -81 8 -6 38 -8 142 -4
160 5 22 9 23 83 20 l77 -3 3 -92z m862 -209 l0 -75 -92 3 -93 3 -3 69 c-2 38
1 72 6 75 6 3 49 5 96 3 l86 -3 0 -75z m268 76 c10 0 12 -19 10 -72 l-3 -73
-95 0 -95 0 -3 65 c-2 47 1 67 11 75 12 8 60 10 175 5z m-543 -75 l0 -70 -95
0 -95 0 -3 59 c-5 89 -6 87 100 84 l93 -3 0 -70z m-1141 -81 c9 -23 7 -147 -3
-162 -5 -9 -29 -12 -82 -10 l-74 3 -3 93 -3 92 80 0 c63 0 80 -3 85 -16z m276
-79 l0 -96 -77 3 -78 3 -3 93 -3 92 81 0 80 0 0 -95z m278 3 l-3 -93 -76 -3
-76 -3 -7 79 c-9 112 -9 112 85 112 l80 0 -3 -92z m573 -68 c15 -9 19 -21 19
-68 0 -31 -4 -63 -8 -70 -6 -9 -33 -12 -98 -10 l-89 3 0 70 0 70 75 6 c41 3
76 6 78 7 2 1 12 -3 23 -8z m282 1 c4 -1 7 -34 5 -73 l-3 -73 -90 0 -90 0 -3
69 c-2 49 1 72 10 78 10 6 103 6 171 -1z m275 -1 c10 0 12 -18 10 -72 l-3 -73
-95 0 -95 0 -3 65 c-4 83 5 90 102 85 39 -3 77 -4 84 -5z m518 -52 c12 -19 4
-162 -9 -170 -14 -9 -89 -10 -111 -2 -13 5 -16 23 -16 88 0 46 3 86 7 89 12
12 121 8 129 -5z m272 -77 c2 -61 -1 -87 -10 -92 -17 -11 -99 -11 -116 0 -16
10 -26 99 -17 147 l6 35 67 -3 67 -3 3 -84z m266 73 c10 -26 7 -134 -4 -155
-8 -15 -21 -19 -60 -19 -79 0 -80 1 -80 94 0 46 3 86 7 89 3 4 34 7 69 7 47 0
63 -4 68 -16z m-3626 -102 l3 -63 -123 3 -123 3 -3 49 c-5 79 -8 77 125 74
l118 -3 3 -63z m367 3 l0 -60 -122 -3 -123 -3 0 59 c0 32 3 62 7 66 4 3 59 5
122 4 l116 -3 0 -60z m513 -57 c14 -14 16 -155 3 -176 -5 -9 -29 -12 -82 -10
l-74 3 -3 85 c-2 71 0 87 14 97 22 16 126 17 142 1z m266 6 c13 -5 16 -24 16
-100 l0 -95 -77 3 -78 3 -3 89 c-2 65 1 92 10 98 15 9 109 11 132 2z m284 -2
c9 -6 12 -33 10 -98 l-3 -89 -77 -3 c-43 -2 -78 1 -79 5 -15 188 -13 193 74
193 34 0 68 -4 75 -8z m590 -94 c13 -13 16 -116 4 -136 -6 -9 -33 -12 -98 -10
l-89 3 -3 63 c-2 38 2 69 9 78 15 18 159 20 177 2z m282 -51 c9 -95 5 -98 -97
-95 l-88 3 -3 64 c-4 94 -6 92 95 89 l88 -3 5 -58z m268 54 c9 -5 12 -28 10
-77 l-3 -69 -95 0 -95 0 -3 69 c-2 49 1 72 10 77 7 5 47 9 88 9 41 0 81 -4 88
-9z m-2573 -111 l0 -65 -120 0 -120 0 -3 44 c-7 93 -8 92 126 89 l117 -3 0
-65z m370 0 l0 -65 -120 0 -120 0 -3 54 c-5 84 -9 82 125 79 l118 -3 0 -65z
m3257 36 c9 -13 10 -128 2 -150 -5 -12 -21 -16 -75 -16 l-69 0 0 89 c0 75 3
90 16 93 33 6 119 -4 126 -16z m-527 -6 c6 -20 5 -113 -3 -143 -4 -15 -14 -17
-71 -15 l-66 3 -3 88 -3 87 70 0 c60 0 70 -3 76 -20z m265 -70 l0 -90 -69 0
-68 0 -7 38 c-8 48 -8 106 0 126 5 12 21 16 75 16 l69 0 0 -90z m-2482 -132
c7 -7 12 -42 12 -88 0 -46 -5 -81 -12 -88 -12 -12 -114 -17 -142 -6 -13 5 -16
23 -16 94 0 61 4 90 13 93 25 11 133 7 145 -5z m277 -88 l0 -95 -75 0 -75 0
-3 89 c-2 65 1 92 10 98 7 4 42 7 78 6 l65 -3 0 -95z m269 94 c13 -5 16 -23
16 -94 0 -101 1 -100 -90 -100 -48 0 -61 4 -70 19 -14 27 -13 154 2 169 12 12
114 17 142 6z m-1426 -82 c2 -31 -2 -60 -9 -68 -15 -18 -209 -20 -227 -2 -13
13 -17 110 -5 122 4 3 59 5 122 4 l116 -3 3 -53z m370 0 c2 -30 -2 -60 -8 -67
-13 -16 -191 -20 -220 -5 -16 9 -20 21 -20 64 0 29 3 56 7 60 4 3 59 5 122 4
l116 -3 3 -53z m2711 -21 c16 -10 23 -137 9 -164 -8 -15 -20 -17 -71 -15 l-62
3 -3 79 c-2 44 -1 85 2 93 6 15 102 18 125 4z m269 0 c9 -5 12 -31 10 -92 l-3
-84 -66 -3 c-76 -3 -79 0 -79 96 0 79 10 92 73 92 29 0 58 -4 65 -9z m263 -1
c16 -9 19 -22 19 -73 0 -106 -2 -108 -79 -105 l-66 3 -3 84 c-2 61 1 87 10 92
18 12 96 11 119 -1z m-3623 -179 c9 -5 12 -26 10 -67 l-3 -59 -120 0 -120 0
-3 59 c-2 41 1 62 10 67 7 5 58 9 113 9 55 0 106 -4 113 -9z m370 0 c9 -5 12
-26 10 -67 l-3 -59 -120 0 -120 0 -3 62 c-2 52 0 62 15 66 32 8 208 7 221 -2z"/>
</g>
</svg>
