<?xml version="1.0" standalone="no"?>
<!DOCTYPE svg PUBLIC "-//W3C//DTD SVG 20010904//EN"
 "http://www.w3.org/TR/2001/REC-SVG-20010904/DTD/svg10.dtd">
<svg version="1.0" xmlns="http://www.w3.org/2000/svg"
 width="225.000000pt" height="225.000000pt" viewBox="0 0 225.000000 225.000000"
 preserveAspectRatio="xMidYMid meet">

<g transform="translate(0.000000,225.000000) scale(0.100000,-0.100000)"
fill="white" stroke="none">
<path d="M985 2234 c-168 -42 -290 -108 -395 -214 -122 -121 -199 -276 -220
-443 -12 -94 0 -178 44 -310 70 -210 145 -355 406 -787 15 -25 67 -112 115
-195 49 -82 105 -178 126 -212 l36 -62 30 47 c17 26 82 130 145 232 63 102
160 256 214 343 252 401 304 498 357 662 45 138 50 180 37 280 -25 178 -97
324 -222 447 -86 85 -170 137 -293 182 -72 26 -94 29 -220 32 -77 1 -149 0
-160 -2z m261 -301 c129 -44 239 -144 285 -260 34 -83 34 -242 1 -325 -48
-120 -165 -225 -289 -259 -127 -35 -259 -16 -363 53 -233 155 -267 476 -72
674 56 57 120 97 191 118 65 20 187 20 247 -1z"/>
</g>
</svg>
