<?xml version="1.0" encoding="UTF-8"?>
<svg version="1.1" xmlns="http://www.w3.org/2000/svg" fill='white' width="225" height="225">
<path d="M0 0 C1.0017627 0.00418945 2.00352539 0.00837891 3.03564453 0.01269531 C11.5972064 0.14168823 19.47313506 1.30693844 27.8125 3.3125 C29.15200925 3.61865473 30.49186194 3.92331016 31.83203125 4.2265625 C36.16765123 5.21938626 40.48990353 6.26467848 44.8125 7.3125 C47.60476646 7.98581606 50.39743377 8.65739399 53.19067383 9.32666016 C55.02176973 9.76553758 56.8523637 10.20651608 58.68237305 10.64990234 C64.86253138 12.13380354 70.69007715 13.33850062 77.0703125 13.41796875 C78.02550781 13.43279297 78.98070312 13.44761719 79.96484375 13.46289062 C81.95427889 13.48772589 83.94405475 13.4927822 85.93359375 13.47851562 C88.68157519 13.5398711 91.14159928 13.65914521 93.8125 14.3125 C97.14483147 17.95910824 98.38971001 21.63761859 99.8125 26.3125 C100.31910156 27.18068359 100.31910156 27.18068359 100.8359375 28.06640625 C103.02353046 33.09787007 102.52724442 38.97614544 101.8125 44.3125 C100.28841769 47.27183774 98.56081661 49.41858234 95.8125 51.3125 C95.1525 51.3125 94.4925 51.3125 93.8125 51.3125 C93.8125 51.9725 93.8125 52.6325 93.8125 53.3125 C87.7578125 54.2890625 87.7578125 54.2890625 85.8125 54.3125 C85.1525 53.6525 84.4925 52.9925 83.8125 52.3125 C83.42578125 52.79460937 83.0390625 53.27671875 82.640625 53.7734375 C82.11984375 54.40507812 81.5990625 55.03671875 81.0625 55.6875 C80.55203125 56.31398437 80.0415625 56.94046875 79.515625 57.5859375 C76.82669182 60.31187435 74.78730935 61.20925334 70.97265625 61.61328125 C69.95042969 61.61714844 68.92820313 61.62101562 67.875 61.625 C66.85535156 61.64175781 65.83570313 61.65851563 64.78515625 61.67578125 C60.58885624 61.16296141 57.99443758 59.67537618 55.23046875 56.48828125 C54.09114583 54.76302083 52.95182292 53.03776042 51.8125 51.3125 C51.39798804 51.7995041 50.98347609 52.2865082 50.55640316 52.78827 C47.56718663 55.40094576 43.69575005 54.73634379 39.90649414 54.71655273 C38.54022133 54.72684761 38.54022133 54.72684761 37.14634705 54.73735046 C34.12995902 54.75567907 31.11408811 54.75177225 28.09765625 54.74609375 C26.0040215 54.75065273 23.91038826 54.75595745 21.8167572 54.76197815 C17.42603481 54.77092124 13.03549418 54.76847258 8.64477539 54.75854492 C3.0142215 54.74705545 -2.61570525 54.76726058 -8.24617672 54.79646206 C-12.57072444 54.81479653 -16.89512113 54.81453705 -21.21969795 54.80882454 C-23.29576052 54.80867098 -25.3718331 54.81474391 -27.44785881 54.82711601 C-30.34967405 54.84197159 -33.25032126 54.83138874 -36.15209961 54.81420898 C-37.44191238 54.82871094 -37.44191238 54.82871094 -38.75778198 54.84350586 C-44.60878805 54.77086345 -44.60878805 54.77086345 -47.75221252 52.28114319 C-48.22585739 51.63149094 -48.69950226 50.98183868 -49.1875 50.3125 C-49.72375 51.385 -50.26 52.4575 -50.8125 53.5625 C-53.29964107 57.85847094 -56.1973546 60.48427235 -61.10546875 61.84375 C-66.97542934 62.84289223 -71.65598757 61.72543717 -76.875 58.8125 C-80.2452311 55.16900692 -81.599588 50.96091277 -83.1875 46.3125 C-83.435 47.281875 -83.6825 48.25125 -83.9375 49.25 C-84.35 50.260625 -84.7625 51.27125 -85.1875 52.3125 C-88.52163956 53.66480835 -92.07042346 53.47945331 -95.625 53.5 C-97.29369141 53.52126953 -97.29369141 53.52126953 -98.99609375 53.54296875 C-103.30994662 53.23144204 -106.11469628 52.38530372 -109.1875 49.3125 C-109.3828125 47.1484375 -109.3828125 47.1484375 -109.3125 44.6875 C-109.28542969 43.46160156 -109.28542969 43.46160156 -109.2578125 42.2109375 C-109.22300781 41.27121094 -109.22300781 41.27121094 -109.1875 40.3125 C-109.8475 39.9825 -110.5075 39.6525 -111.1875 39.3125 C-110.76938612 34.43450473 -108.82347431 32.46367773 -105.1875 29.3125 C-100.98922416 26.28877766 -96.78482156 24.02175104 -91.9375 22.25 C-91.21933105 21.98743408 -90.50116211 21.72486816 -89.76123047 21.4543457 C-83.02283984 19.20798186 -76.36087032 18.59638084 -69.3125 18 C-57.79419072 16.98614925 -49.38463808 13.7881642 -39.29541016 8.37548828 C-36.02711929 6.72733697 -32.66110417 5.51360758 -29.1875 4.375 C-28.094375 4.01535156 -27.00125 3.65570313 -25.875 3.28515625 C-17.23561854 1.00633635 -8.93079081 -0.05191433 0 0 Z M-32.1875 13.3125 C-31.548125 13.869375 -30.90875 14.42625 -30.25 15 C-27.9581813 17.5696149 -27.71050694 18.99278226 -27.1875 22.3125 C-16.87168451 22.96199946 -7.04107086 21.21779067 3.07006836 19.43164062 C5.8981191 18.93342714 8.72892104 18.45399204 11.56054688 17.9765625 C13.36477283 17.66515843 15.16881672 17.3526972 16.97265625 17.0390625 C18.23820091 16.82487167 18.23820091 16.82487167 19.52931213 16.60635376 C20.31120407 16.46635956 21.09309601 16.32636536 21.89868164 16.18212891 C22.58418594 16.06221588 23.26969025 15.94230286 23.97596741 15.8187561 C26.12763725 15.32892635 26.12763725 15.32892635 28.8125 13.3125 C28.3175 11.8275 28.3175 11.8275 27.8125 10.3125 C24.77045587 9.0836263 24.77045587 9.0836263 21.125 8.1875 C19.90425781 7.85492188 18.68351562 7.52234375 17.42578125 7.1796875 C0.85120333 3.2017888 -17.62177636 3.60201757 -32.1875 13.3125 Z M-76.1875 47.3125 C-75.5275 48.6325 -74.8675 49.9525 -74.1875 51.3125 C-73.1975 49.9925 -72.2075 48.6725 -71.1875 47.3125 C-72.8375 47.3125 -74.4875 47.3125 -76.1875 47.3125 Z M-60.1875 47.3125 C-59.5275 48.6325 -58.8675 49.9525 -58.1875 51.3125 C-57.5275 51.3125 -56.8675 51.3125 -56.1875 51.3125 C-55.8575 49.9925 -55.5275 48.6725 -55.1875 47.3125 C-56.8375 47.3125 -58.4875 47.3125 -60.1875 47.3125 Z M57.8125 47.3125 C58.1425 48.6325 58.4725 49.9525 58.8125 51.3125 C60.1325 49.9925 61.4525 48.6725 62.8125 47.3125 C61.1625 47.3125 59.5125 47.3125 57.8125 47.3125 Z M72.8125 47.3125 C74.1325 48.6325 75.4525 49.9525 76.8125 51.3125 C77.4725 49.9925 78.1325 48.6725 78.8125 47.3125 C76.8325 47.3125 74.8525 47.3125 72.8125 47.3125 Z M83.8125 49.3125 C84.8125 51.3125 84.8125 51.3125 84.8125 51.3125 Z M-64.1875 50.3125 C-64.1875 52.2925 -64.1875 54.2725 -64.1875 56.3125 C-62.5375 55.6525 -60.8875 54.9925 -59.1875 54.3125 C-59.8475 53.9825 -60.5075 53.6525 -61.1875 53.3125 C-61.1875 52.6525 -61.1875 51.9925 -61.1875 51.3125 C-62.1775 50.9825 -63.1675 50.6525 -64.1875 50.3125 Z M69.8125 50.3125 C69.8125 51.9625 69.8125 53.6125 69.8125 55.3125 C71.1325 54.9825 72.4525 54.6525 73.8125 54.3125 C72.4925 52.9925 71.1725 51.6725 69.8125 50.3125 Z M-70.1875 51.3125 C-71.1775 52.7975 -71.1775 52.7975 -72.1875 54.3125 C-69.7125 55.3025 -69.7125 55.3025 -67.1875 56.3125 C-67.5175 54.6625 -67.8475 53.0125 -68.1875 51.3125 C-68.8475 51.3125 -69.5075 51.3125 -70.1875 51.3125 Z M63.8125 51.3125 C62.8225 52.7975 62.8225 52.7975 61.8125 54.3125 C63.7925 55.3025 63.7925 55.3025 65.8125 56.3125 C66.1425 55.3225 66.4725 54.3325 66.8125 53.3125 C65.8225 52.6525 64.8325 51.9925 63.8125 51.3125 Z " fill="white" transform="translate(116.1875,94.6875)"/>
<path d="M0 0 C0.33 0 0.66 0 1 0 C0.6166563 5.65431955 0.22219898 8.89508433 -4 13 C-7.95859499 16.07890721 -12.04256211 17 -17 17 C-22.06798096 16.05512219 -25.19364246 14.46032504 -29 11 C-27.92598892 8.08482708 -27.22189824 6.22189824 -25 4 C-24.34 4 -23.68 4 -23 4 C-22.67 3.67 -22.34 3.34 -22 3 C-23.65 3 -25.3 3 -27 3 C-27 2.34 -27 1.68 -27 1 C-24.69 1 -22.38 1 -20 1 C-20.59927826 4.35595828 -21.84622436 6.37801226 -24 9 C-21.03 9.495 -21.03 9.495 -18 10 C-18.33 8.35 -18.66 6.7 -19 5 C-18.34 4.67 -17.68 4.34 -17 4 C-16.67 4.99 -16.34 5.98 -16 7 C-15.67 6.01 -15.34 5.02 -15 4 C-14.34 4 -13.68 4 -13 4 C-12.67 3.01 -12.34 2.02 -12 1 C-9.36 1 -6.72 1 -4 1 C-4 1.66 -4 2.32 -4 3 C-3.01 2.67 -2.02 2.34 -1 2 C-0.67 1.34 -0.34 0.68 0 0 Z M-10 2 C-9.34 3.32 -8.68 4.64 -8 6 C-7.34 6 -6.68 6 -6 6 C-5.67 4.68 -5.34 3.36 -5 2 C-6.65 2 -8.3 2 -10 2 Z M-14 5 C-14 6.98 -14 8.96 -14 11 C-12.35 10.34 -10.7 9.68 -9 9 C-9.66 8.67 -10.32 8.34 -11 8 C-11 7.34 -11 6.68 -11 6 C-11.99 5.67 -12.98 5.34 -14 5 Z " fill="white" transform="translate(66,140)"/>
<path d="M0 0 C1.52959351 -0.0009668 1.52959351 -0.0009668 3.09008789 -0.00195312 C10.54890643 0.05017745 17.62820358 0.61621171 24.9375 2.1875 C24.9375 2.5175 24.9375 2.8475 24.9375 3.1875 C22.9575 3.1875 20.9775 3.1875 18.9375 3.1875 C18.6075 4.5075 18.2775 5.8275 17.9375 7.1875 C8.3675 6.5275 -1.2025 5.8675 -11.0625 5.1875 C-11.0625 4.8575 -11.0625 4.5275 -11.0625 4.1875 C-4.7925 3.8575 1.4775 3.5275 7.9375 3.1875 C7.9375 2.8575 7.9375 2.5275 7.9375 2.1875 C-0.3125 2.1875 -8.5625 2.1875 -17.0625 2.1875 C-17.0625 1.8575 -17.0625 1.5275 -17.0625 1.1875 C-11.37798762 -0.01480803 -5.78239836 -0.0037472 0 0 Z " fill="white" transform="translate(116.0625,94.8125)"/>
<path d="M0 0 C0.61875 0.350625 1.2375 0.70125 1.875 1.0625 C2.57625 1.371875 3.2775 1.68125 4 2 C4.66 1.67 5.32 1.34 6 1 C8.3329866 0.95977609 10.66706666 0.95679753 13 1 C13.625 3.3125 13.625 3.3125 14 6 C13.01 7.485 13.01 7.485 12 9 C12.66 9.66 13.32 10.32 14 11 C12.35 11.33 10.7 11.66 9 12 C9.33 12.99 9.66 13.98 10 15 C5.51231364 13.50410455 3.19856176 9.9921253 1 6 C0.1875 2.5625 0.1875 2.5625 0 0 Z M7 2 C7.33 3.32 7.66 4.64 8 6 C9.32 4.68 10.64 3.36 12 2 C10.35 2 8.7 2 7 2 Z " fill="white" transform="translate(167,140)"/>
<path d="M0 0 C0.99 0.66 1.98 1.32 3 2 C3.66 1.34 4.32 0.68 5 0 C5.33 0.99 5.66 1.98 6 3 C4.35 3.33 2.7 3.66 1 4 C2.25541557 6.51083114 3.50063488 6.87125446 6 8 C4.3125 10.0625 4.3125 10.0625 2 12 C-0.75 11.75 -0.75 11.75 -3 11 C-3 10.34 -3 9.68 -3 9 C-3.66 8.67 -4.32 8.34 -5 8 C-5 5.69 -5 3.38 -5 1 C-2.525 1.495 -2.525 1.495 0 2 C0 1.34 0 0.68 0 0 Z M-4 2 C-4 3.65 -4 5.3 -4 7 C-2.68 6.67 -1.36 6.34 0 6 C-1.32 4.68 -2.64 3.36 -4 2 Z " fill="white" transform="translate(190,143)"/>
<path d="M0 0 C0.103125 0.639375 0.20625 1.27875 0.3125 1.9375 C0.6528125 2.9584375 0.6528125 2.9584375 1 4 C1.99 4.33 2.98 4.66 4 5 C3.67 5.66 3.34 6.32 3 7 C3.99 7 4.98 7 6 7 C6 7.66 6 8.32 6 9 C2.04 9 -1.92 9 -6 9 C-6.66 7.68 -7.32 6.36 -8 5 C-6.576875 4.87625 -6.576875 4.87625 -5.125 4.75 C-1.89538209 4.34925077 -1.89538209 4.34925077 -0.625 1.9375 C-0.41875 1.298125 -0.2125 0.65875 0 0 Z " fill="white" transform="translate(184,147)"/>
<path d="M0 0 C6.27 0 12.54 0 19 0 C18.67 0.99 18.34 1.98 18 3 C12.06 3 6.12 3 0 3 C0 2.01 0 1.02 0 0 Z " fill="white" transform="translate(107,96)"/>
<path d="M0 0 C2.31 0 4.62 0 7 0 C6.40072174 3.35595828 5.15377564 5.37801226 3 8 C4.32 8.33 5.64 8.66 7 9 C6.01 9.33 5.02 9.66 4 10 C4.33 11.32 4.66 12.64 5 14 C2.50638429 12.79618552 0.31856917 11.54571278 -2 10 C-0.92598892 7.08482708 -0.22189824 5.22189824 2 3 C2.66 3 3.32 3 4 3 C4.33 2.67 4.66 2.34 5 2 C3.35 2 1.7 2 0 2 C0 1.34 0 0.68 0 0 Z " fill="white" transform="translate(39,141)"/>
<path d="M0 0 C0.33 0 0.66 0 1 0 C0.61970897 5.60929268 0.26387681 8.97300524 -4 13 C-6.75 14.3125 -6.75 14.3125 -9 15 C-9 12 -9 12 -7.5625 10.5 C-7.046875 10.005 -6.53125 9.51 -6 9 C-5.67 8.01 -5.34 7.02 -5 6 C-4.34 6 -3.68 6 -3 6 C-2.01 4.02 -1.02 2.04 0 0 Z " fill="white" transform="translate(66,140)"/>
<path d="M0 0 C2.64 0 5.28 0 8 0 C7.67 0.66 7.34 1.32 7 2 C5.68 2 4.36 2 3 2 C3.33 2.66 3.66 3.32 4 4 C2.35 4.33 0.7 4.66 -1 5 C-1.33 6.65 -1.66 8.3 -2 10 C-3.32 10.33 -4.64 10.66 -6 11 C-6.33 8.69 -6.66 6.38 -7 4 C-6.34 3.67 -5.68 3.34 -5 3 C-4.67 3.99 -4.34 4.98 -4 6 C-3.67 5.01 -3.34 4.02 -3 3 C-2.34 3 -1.68 3 -1 3 C-0.67 2.01 -0.34 1.02 0 0 Z " fill="white" transform="translate(54,141)"/>
<path d="M0 0 C0.99 0.99 1.98 1.98 3 3 C2.01 4.485 2.01 4.485 1 6 C-1.97 5.505 -1.97 5.505 -5 5 C-5 4.01 -5 3.02 -5 2 C-3.35 1.34 -1.7 0.68 0 0 Z " fill="white" transform="translate(196,145)"/>
<path d="M0 0 C0.99 0.66 1.98 1.32 3 2 C3.66 1.34 4.32 0.68 5 0 C5.33 0.99 5.66 1.98 6 3 C4.35 3.33 2.7 3.66 1 4 C1 4.99 1 5.98 1 7 C-1.51083114 5.74458443 -1.87125446 4.49936512 -3 2 C-2.01 2 -1.02 2 0 2 C0 1.34 0 0.68 0 0 Z " fill="white" transform="translate(190,143)"/>
<path d="M0 0 C0.33 0.66 0.66 1.32 1 2 C0.34 2 -0.32 2 -1 2 C-1 2.66 -1 3.32 -1 4 C-2.65 4 -4.3 4 -6 4 C-6.33 3.01 -6.66 2.02 -7 1 C-4.53721199 -0.231394 -2.7204945 -0.07159196 0 0 Z " fill="white" transform="translate(106,97)"/>
<path d="M0 0 C0.66 0 1.32 0 2 0 C2.625 2.3125 2.625 2.3125 3 5 C2.01 6.485 2.01 6.485 1 8 C0.34 8 -0.32 8 -1 8 C-1.33 6.68 -1.66 5.36 -2 4 C-1.34 4 -0.68 4 0 4 C0 2.68 0 1.36 0 0 Z " fill="white" transform="translate(37,141)"/>
<path d="M0 0 C2.475 0.99 2.475 0.99 5 2 C4.34 2.66 3.68 3.32 3 4 C0.875 3.625 0.875 3.625 -1 3 C-0.67 2.01 -0.34 1.02 0 0 Z M-3 4 C-2.01 4 -1.02 4 0 4 C0.33 4.99 0.66 5.98 1 7 C-0.32 6.34 -1.64 5.68 -3 5 C-3 4.67 -3 4.34 -3 4 Z " fill="white" transform="translate(176,148)"/>
<path d="M0 0 C0.99 0.99 1.98 1.98 3 3 C1.37660195 4.70884005 -0.29319053 6.37446717 -2 8 C-2.66 8 -3.32 8 -4 8 C-2.66666667 5.33333333 -1.33333333 2.66666667 0 0 Z " fill="white" transform="translate(46,141)"/>
<path d="M0 0 C0.66 0.33 1.32 0.66 2 1 C-1.96 4.465 -1.96 4.465 -6 8 C-6.66 7.67 -7.32 7.34 -8 7 C-5.42215154 4.35247996 -3.08351902 2.05567935 0 0 Z " fill="white" transform="translate(15,121)"/>
<path d="M0 0 C2.0625 2.25 2.0625 2.25 4 5 C3.75 7.3125 3.75 7.3125 3 9 C2.67 8.34 2.34 7.68 2 7 C1.34 7 0.68 7 0 7 C0 4.69 0 2.38 0 0 Z " fill="white" transform="translate(213,117)"/>
<path d="" fill="white" transform="translate(0,0)"/>
<path d="" fill="white" transform="translate(0,0)"/>
<path d="" fill="white" transform="translate(0,0)"/>
<path d="" fill="white" transform="translate(0,0)"/>
<path d="" fill="white" transform="translate(0,0)"/>
<path d="" fill="white" transform="translate(0,0)"/>
<path d="" fill="white" transform="translate(0,0)"/>
<path d="" fill="white" transform="translate(0,0)"/>
<path d="" fill="white" transform="translate(0,0)"/>
</svg>
